<?xml version="1.0" encoding="utf-8"?>
<!-- Svg Vector Icons : http://www.onlinewebfonts.com/icon -->
<!DOCTYPE svg PUBLIC "-//W3C//DTD SVG 1.1//EN" "http://www.w3.org/Graphics/SVG/1.1/DTD/svg11.dtd">
<svg version="1.1" xmlns="http://www.w3.org/2000/svg" xmlns:xlink="http://www.w3.org/1999/xlink" x="0px" y="0px" viewBox="0 0 1000 1000" enable-background="new 0 0 1000 1000" xml:space="preserve">
<metadata> Svg Vector Icons : http://www.onlinewebfonts.com/icon </metadata>
<g><path d="M414,501.9l86.2,86.2c11.2-26.2,15-56.2,15-86.2c0-30-7.5-59.9-15-86.2L414,501.9z"/><path d="M469.3,344.5L263.1,138.4H227v274.8L60.6,246.9L10,297.5L212.5,500L10,702.5l50.6,50.6L227,586.8v274.8h36.2l206.1-206.1L313.8,500L469.3,344.5L469.3,344.5z M299.3,275.8l68.7,68.7l-68.7,68.7V275.8z M368,655.5l-68.7,68.7V586.8L368,655.5L368,655.5z"/><path d="M746.9,833.7c184.3-184.3,184.3-483.2,0-667.6L821,92.1c225.3,225.3,225.3,590.6,0,815.9L746.9,833.7z"/><path d="M709.8,796.6l-74.2-74.2c122.9-122.9,122.9-322.1,0-444.9l74.2-74.2C873.6,367.1,873.6,632.8,709.8,796.6z"/><path d="M598.5,685.4l-74.2-74.2c61.5-61.4,61.5-161,0-222.5l74.2-74.2C700.9,417,700.9,583,598.5,685.4z"/></g>
</svg>